<svg xmlns="http://www.w3.org/2000/svg" version="1.1" xmlns:xlink="http://www.w3.org/1999/xlink" xmlns:svgjs="http://svgjs.dev/svgjs" width="2000" height="444" viewBox="0 0 2000 444"><g transform="matrix(1,0,0,1,-1.2121212121212466,-1.542320468819895)"><svg viewBox="0 0 396 88" data-background-color="#111111" preserveAspectRatio="xMidYMid meet" height="444" width="2000" xmlns="http://www.w3.org/2000/svg" xmlns:xlink="http://www.w3.org/1999/xlink"><g id="tight-bounds" transform="matrix(1,0,0,1,0.2400000000000091,0.3056851379643035)"><svg viewBox="0 0 395.52 87.38841080277145" height="87.38841080277145" width="395.52"><g><svg viewBox="0 0 555.8955794751272 122.82269231041946" height="87.38841080277145" width="395.52"><g transform="matrix(1,0,0,1,160.37557947512718,21.643551922941604)"><svg viewBox="0 0 395.52 79.53558846453625" height="79.53558846453625" width="395.52"><g id="textblocktransform"><svg viewBox="0 0 395.52 79.53558846453625" height="79.53558846453625" width="395.52" id="textblock"><g><svg viewBox="0 0 395.52 79.53558846453625" height="79.53558846453625" width="395.52"><g transform="matrix(1,0,0,1,0,0)"><svg width="395.52" viewBox="1.85 -38 192.43 38.7" height="79.53558846453625" data-palette-color="#ffffff"><path d="M16 0.6L16 0.6Q13.28 0.6 10.75-0.51 8.22-1.63 6.21-3.89 4.2-6.15 3.03-9.65 1.85-13.15 1.85-17.9L1.85-17.9Q1.85-23.6 3.84-27.51 5.83-31.43 9.16-33.44 12.5-35.45 16.55-35.45L16.55-35.45Q19.3-35.45 21.04-34.93 22.78-34.4 23.81-33.68 24.85-32.95 25.5-32.35L25.5-32.35 22.7-27.1Q21.63-28.28 20.48-28.99 19.33-29.7 16.8-29.7L16.8-29.7Q14.25-29.7 12.46-28.23 10.68-26.75 9.74-24.16 8.8-21.58 8.8-18.25L8.8-18.25Q8.8-11.73 10.99-8.41 13.18-5.1 16.25-5.1L16.25-5.1Q18.63-5.1 20.3-5.78 21.98-6.45 22.8-7.3L22.8-7.3 25.55-2.35Q24.85-1.78 23.69-1.09 22.53-0.4 20.66 0.1 18.8 0.6 16 0.6ZM35.05 0.7L35.05 0.7Q32.75 0.7 31.23-0.33 29.72-1.35 28.98-3.05 28.25-4.75 28.25-6.8L28.25-6.8Q28.25-7.95 28.84-9.33 29.42-10.7 30.92-11.95 32.42-13.2 35.15-14 37.87-14.8 42.15-14.8L42.15-14.8 42.15-15.95Q42.15-17.8 41.26-19.03 40.37-20.25 37.7-20.25L37.7-20.25Q35.75-20.25 33.88-19.59 32.02-18.93 31.15-17.95L31.15-17.95 29.15-22.75Q30.65-23.78 33.16-24.64 35.67-25.5 38.75-25.5L38.75-25.5Q42.45-25.5 44.5-24.38 46.55-23.25 47.37-21.19 48.2-19.13 48.2-16.35L48.2-16.35 48.2 0 42.85 0 42.4-3.55Q39.8 0.7 35.05 0.7ZM37.7-4.1L37.7-4.1Q38.82-4.1 40.11-5.01 41.4-5.93 42.15-7.35L42.15-7.35 42.15-10.9Q41.9-10.95 41.61-10.95 41.32-10.95 40.95-10.95L40.95-10.95Q39.57-10.95 38.06-10.64 36.55-10.33 35.5-9.55 34.45-8.78 34.45-7.4L34.45-7.4Q34.45-5.6 35.25-4.85 36.05-4.1 37.7-4.1ZM60.9 0L54.65 0 54.65-24.9 60.3-24.9 60.6-20.5Q61-21.48 61.83-22.58 62.67-23.68 64.16-24.44 65.65-25.2 68-25.2L68-25.2Q68.72-25.2 69.27-25.1 69.82-25 70.3-24.8L70.3-24.8 68.9-18.25Q68.1-19.05 66.45-19.05L66.45-19.05Q64.52-19.05 63.3-18.26 62.07-17.48 61.48-16.5 60.9-15.53 60.9-15L60.9-15 60.9 0ZM83.59 0.65L83.59 0.65Q79.39 0.65 76.82-1.11 74.24-2.88 73.07-5.79 71.89-8.7 71.89-12.15L71.89-12.15Q71.89-15.78 73.23-18.81 74.57-21.85 77.16-23.68 79.74-25.5 83.49-25.5L83.49-25.5Q89.09-25.5 91.32-22.26 93.54-19.03 93.54-13.1L93.54-13.1Q93.54-12.58 93.52-11.78 93.49-10.98 93.44-10.4L93.44-10.4 78.44-10.4Q78.59-7.45 80.11-5.78 81.62-4.1 84.64-4.1L84.64-4.1Q86.19-4.1 87.97-4.79 89.74-5.48 90.59-6.45L90.59-6.45 92.59-1.7Q91.59-1.03 89.43-0.19 87.27 0.65 83.59 0.65ZM78.39-14.3L78.39-14.3 87.19-14.3Q87.19-16.93 86.73-18.31 86.27-19.7 85.47-20.23 84.67-20.75 83.64-20.75L83.64-20.75Q81.09-20.75 79.82-18.86 78.54-16.98 78.39-14.3ZM106.34 0L99.94 0 99.94-34.85 118.14-34.85 118.14-29.35 106.34-29.35 106.34-20.2 116.64-20.2 116.64-14.6 106.34-14.6 106.34 0ZM128.84 0L122.74 0 122.74-38 128.84-38 128.84 0ZM145.24 0.5L145.24 0.5Q139.74 0.5 136.74-2.95 133.74-6.4 133.74-12.5L133.74-12.5Q133.74-18.65 136.84-22.08 139.94-25.5 145.44-25.5L145.44-25.5Q150.96-25.5 153.85-21.96 156.74-18.43 156.74-12.5L156.74-12.5Q156.74-6.58 153.75-3.04 150.76 0.5 145.24 0.5ZM145.34-4.5L145.34-4.5Q150.09-4.5 150.09-12.5L150.09-12.5Q150.09-20.55 145.34-20.55L145.34-20.55Q142.99-20.55 141.69-18.69 140.39-16.82 140.39-12.5L140.39-12.5Q140.39-8.2 141.69-6.35 142.99-4.5 145.34-4.5ZM172.08 0L167.08 0 159.13-24.9 165.48-24.9 168.48-13.05 169.78-7.8 170.88-13.05 174.13-24.9 179.33-24.9 182.78-13.05 184.08-7.8 185.23-13.05 188.13-24.9 194.28-24.9 186.43 0 181.38 0 177.38-13.55 176.58-17.6 175.78-13.55 172.08 0Z" opacity="1" transform="matrix(1,0,0,1,0,0)" fill="#ffffff" class="wordmark-text-0" data-fill-palette-color="primary" id="text-0"></path></svg></g></svg></g></svg></g></svg></g><g><svg viewBox="0 0 122.82269231041946 122.82269231041946" height="122.82269231041946" width="122.82269231041946"><g><svg></svg></g><g id="icon-0"><svg viewBox="0 0 122.82269231041946 122.82269231041946" height="122.82269231041946" width="122.82269231041946"><g><path d="M0 61.411c0-33.917 27.495-61.411 61.411-61.411 33.917 0 61.411 27.495 61.412 61.411 0 33.917-27.495 61.411-61.412 61.412-33.917 0-61.411-27.495-61.411-61.412zM61.411 115.65c29.955 0 54.239-24.284 54.239-54.239 0-29.955-24.284-54.239-54.239-54.238-29.955 0-54.239 24.284-54.238 54.238 0 29.955 24.284 54.239 54.238 54.239z" data-fill-palette-color="tertiary" fill="#ffffff" stroke="transparent"></path></g><g transform="matrix(1,0,0,1,42.41875975151017,28.676031816216586)"><svg viewBox="0 0 37.98517280739911 65.47062867798628" height="65.47062867798628" width="37.98517280739911"><g><svg xmlns="http://www.w3.org/2000/svg" xmlns:xlink="http://www.w3.org/1999/xlink" version="1.1" x="0" y="0" viewBox="21.679106830508616 1 56.85827385947762 98" enable-background="new 0 0 100 100" xml:space="preserve" height="65.47062867798628" width="37.98517280739911" class="icon-dxe-0" data-fill-palette-color="accent" id="dxe-0"><g fill="#ffffff" data-fill-palette-color="accent"><path fill-rule="evenodd" clip-rule="evenodd" d="M30.545 28.822C29.38 36.039 30.875 43.672 37.045 47.863 30.758 19.81 45.756 8.664 59.646 1 43.466 24.046 76.542 24.644 78.423 51.13 80.028 73.71 64.507 91.317 46.639 99 46.845 76.175 24.089 73.067 21.801 54.397 20.905 47.094 25.062 33.766 30.545 28.822" fill="#ffffff" data-fill-palette-color="accent"></path></g></svg></g></svg></g></svg></g></svg></g></svg></g><defs></defs></svg><rect width="395.52" height="87.38841080277145" fill="none" stroke="none" visibility="hidden"></rect></g></svg></g></svg>